<svg xmlns="http://www.w3.org/2000/svg" width="1728" height="1000" viewBox="0 0 1728 1000" fill="none">
<path d="M17.6217 1041.7C49.0326 925.52 118.484 796.118 200.556 703.836C217.077 681.926 243.702 671.113 213.142 647.998C106.501 598.613 -29.1756 619.175 -142.092 629.811C-183.394 635.306 -255.965 639.95 -230.723 701.07C-202.113 769.706 -76.7173 1080.94 17.6217 1041.7Z" fill="#EEF1F8"/>
<path d="M1496.13 668.246C1579.91 751.169 1660.42 882.202 1696.76 994.657C1706.68 1019.9 1704.1 1048.44 1738.66 1033.65C1834.77 966.047 1884.76 839.34 1932.52 735.606C1969.49 648.96 1972.65 624.958 1857.57 614.358C1805.6 605.991 1475.68 585.5 1496.13 668.246Z" fill="#EEF1F8"/>
<path d="M954.488 405.646C1071.23 415.395 1218.22 464.993 1318.2 527.142C1342.27 540.507 1357.97 563.338 1375.49 529.836C1405.8 465.667 1361.31 271.636 1339.61 201.936C1327.45 172.723 1317.77 105.683 1287.03 95.0113C1229.74 77.356 877.946 354.63 954.488 405.646Z" fill="#EEF1F8"/>
<path d="M746.418 328.715C666.048 238.879 563.235 161.628 466.131 107.846C411.109 74.1663 394.801 139.399 381.683 183.431C363.709 250.613 281.034 535.084 370.09 552.952C649.172 356.262 851.854 468.327 746.418 328.715Z" fill="#EEF1F8"/>
<path d="M1479.79 442.941C1477.16 541.18 1476.24 541.357 1572.89 519.873C1676.18 502.268 1781.42 498.987 1885.61 510.124C1913.09 512.215 1968.11 520.759 1995.09 526.006C2292.68 528.382 1266.15 -297.874 1404.2 55.7293C1451.03 179.619 1476.59 310.534 1479.79 442.941Z" fill="#EEF1F8"/>
<path d="M828.313 281.987C867.878 327.827 881.492 283.228 917.583 242.99C944.836 210.325 974.081 179.375 1005.15 150.317C1057.48 100.329 1149.55 30.3457 1220.81 -9.57375C1433.95 -130.041 937.613 -161.948 853.946 -157.623C771.164 -160.495 277.382 -121.816 488.431 -5.17761C613.152 64.0611 744.965 172.971 828.313 281.987Z" fill="#EEF1F8"/>
<path d="M319.96 -7.15963C198.677 -91.0047 -382.708 403.097 -320.524 538.454C-286.986 555.507 -250.825 533.42 -207.856 530.654C-95.1882 512.751 34.036 511.723 145.428 530.194C245.51 552.316 241.575 543.453 237.391 445.108C238.804 333.466 256.516 222.63 289.967 116.109C298.122 75.4446 332.12 29.1083 319.96 -7.15963Z" fill="#EEF1F8"/>
</svg>