<svg xmlns="http://www.w3.org/2000/svg" width="42" height="42" viewBox="0 0 42 42" fill="none">
<path opacity="0.4" d="M41.8329 20.9998C41.8329 32.5082 32.5058 41.8332 20.9996 41.8332C9.49334 41.8332 0.16626 32.5082 0.16626 20.9998C0.16626 9.49567 9.49334 0.166504 20.9996 0.166504C32.5058 0.166504 41.8329 9.49567 41.8329 20.9998" fill="#388CBA"/>
<path d="M28.4448 28.9467C28.1719 28.9467 27.8969 28.8759 27.6448 28.728L19.4656 23.8488C18.9948 23.5655 18.7052 23.0551 18.7052 22.5051V11.9905C18.7052 11.128 19.4052 10.428 20.2677 10.428C21.1302 10.428 21.8302 11.128 21.8302 11.9905V21.6176L29.2469 26.0405C29.9864 26.4842 30.2302 27.4426 29.7885 28.1842C29.4948 28.6738 28.976 28.9467 28.4448 28.9467" fill="#388CBA"/>
</svg>