<svg width="30" height="30" viewBox="0 0 30 30" fill="none" xmlns="http://www.w3.org/2000/svg">
<path fill-rule="evenodd" clip-rule="evenodd" d="M23.2383 17.3999L23.2383 25.2761C23.2383 25.7936 22.8183 26.2136 22.3008 26.2136C21.7833 26.2136 21.3633 25.7936 21.3633 25.2761L21.3633 17.3999C21.3633 16.8824 21.7833 16.4624 22.3008 16.4624C22.8183 16.4624 23.2383 16.8824 23.2383 17.3999Z" fill="#127682"/>
<path fill-rule="evenodd" clip-rule="evenodd" d="M11.125 6.01135L11.125 13.8864C11.125 14.4039 10.705 14.8239 10.1875 14.8239C9.67 14.8239 9.25 14.4039 9.25 13.8864L9.25 6.01135C9.25 5.49385 9.67 5.07385 10.1875 5.07385C10.705 5.07385 11.125 5.49385 11.125 6.01135Z" fill="#127682"/>
<mask id="mask0_14_507" style="mask-type:luminance" maskUnits="userSpaceOnUse" x="6" y="18" width="8" height="9">
<path fill-rule="evenodd" clip-rule="evenodd" d="M6.25 26.25L6.25 18.4678L13.9895 18.4677L13.9895 26.25L6.25 26.25Z" fill="white"/>
</mask>
<g mask="url(#mask0_14_507)">
<path fill-rule="evenodd" clip-rule="evenodd" d="M8.125 22.3589C8.125 23.4702 9.02 24.3752 10.1212 24.3752C11.2212 24.3752 12.115 23.4702 12.115 22.3589C12.115 21.2464 11.2212 20.3427 10.1212 20.3427C9.02 20.3427 8.125 21.2464 8.125 22.3589ZM13.99 22.359C13.99 24.504 12.255 26.2502 10.1212 26.2502C7.9875 26.2502 6.25 24.504 6.25 22.359C6.25 20.2127 7.9875 18.4677 10.1212 18.4677C12.255 18.4677 13.99 20.2127 13.99 22.359Z" fill="#127682"/>
</g>
<path fill-rule="evenodd" clip-rule="evenodd" d="M20.2578 8.26534C20.2578 9.37784 21.1528 10.2828 22.2528 10.2828C23.3541 10.2828 24.2478 9.37784 24.2478 8.26534C24.2478 7.15409 23.3541 6.25034 22.2528 6.25034C21.1528 6.25034 20.2578 7.15409 20.2578 8.26534ZM26.1228 8.26534C26.1228 10.4116 24.3866 12.1578 22.2528 12.1578C20.1191 12.1578 18.3828 10.4116 18.3828 8.26534C18.3828 6.12034 20.1191 4.37534 22.2528 4.37534C24.3866 4.37534 26.1228 6.12034 26.1228 8.26534Z" fill="#127682"/>
</svg>
